Coordinates
version=1
nRows=4
nColumns=107
inDegrees=yes

Units are S.I. units (second, meters, Newtons, ...)
If the header above contains a line with 'inDegrees', this indicates whether rotational values are in degrees (yes) or radians (no).

endheader
time	sternoclavicular_r2	sternoclavicular_r3	unrotscap_r3	unrotscap_r2	acromioclavicular_r2	acromioclavicular_r3	acromioclavicular_r1	unrothum_r1	unrothum_r3	unrothum_r2	elv_angle	shoulder_elv	shoulder1_r2	shoulder_rot	elbow_flexion	pro_sup	deviation	flexion	proximal_distal_r1	proximal_distal_r3	cmc_flexion	cmc_abduction	mp_flexion	ip_flexion	mcp2_flexion	mcp2_abduction	pm2_flexion	md2_flexion	mcp3_flexion	mcp3_abduction	pm3_flexion	md3_flexion	mcp4_flexion	mcp4_abduction	pm4_flexion	md4_flexion	mcp5_flexion	mcp5_abduction	pm5_flexion	md5_flexion	bicpt_tx	bicpt_ty	bicpt_tz	bicpt2_tx	bicpt2_ty	bicpt2_tz	ptpt_tx	ptpt_ty	ptpt_tz	FCUpt_tx	FCUpt_ty	FCUpt_tz	EDCpt_tx	EDCpt_ty	EDCpt_tz	APLpt_tx	APLpt_ty	APLpt_tz	FPLpt_tx	FPLpt_ty	FPLpt_tz	FPLpt2_tx	FPLpt2_ty	FPLpt2_tz	PEC1pt2_tx	PEC1pt2_ty	PEC1pt2_tz	PEC1pt3_tx	PEC1pt3_ty	PEC1pt3_tz	PEC2pt2_tx	PEC2pt2_ty	PEC2pt2_tz	PEC2pt3_tx	PEC2pt3_ty	PEC2pt3_tz	PEC3pt2_tx	PEC3pt2_ty	PEC3pt2_tz	PEC3pt3_tx	PEC3pt3_ty	PEC3pt3_tz	DELT2pt2a_tx	DELT2pt2a_ty	DELT2pt2a_tz	DELT2pt2_tx	DELT2pt2_ty	DELT2pt2_tz	LAT1pt2_tx	LAT1pt2_ty	LAT1pt2_tz	LAT1pt3_tx	LAT1pt3_ty	LAT1pt3_tz	LAT2pt2_tx	LAT2pt2_ty	LAT2pt2_tz	LAT2pt3_tx	LAT2pt3_ty	LAT2pt3_tz	LAT3pt2_tx	LAT3pt2_ty	LAT3pt2_tz	LAT3pt3_tx	LAT3pt3_ty	LAT3pt3_tz
      0.00000000	     -0.33149984	      0.14040769	     -0.14040769	      0.33149984	     -0.06712197	      0.54245619	      0.24383032	     -0.24383032	     -0.54245619	      0.06712197	     98.16218353	     78.48553391	     -1.71325330	    -13.93858359	     27.47727032	     31.59972035	      0.13867705	     -0.27259511	      0.17246331	     -0.13629756	     23.93384509	    -23.20233017	     -4.74214306	      0.24592694	      0.79413119	      4.35997779	     14.49945862	    -27.89694365	     -4.04441685	      3.39504729	      7.44666014	     10.80061041	     -7.65886350	     -4.21480430	      0.58716929	     21.68711705	    -23.12603575	    -10.50994642	     15.88588411	      4.99936058	      0.00080886	     -0.03074932	     -0.00480727	      0.01647800	     -0.01766434	     -0.00831730	      0.00521514	     -0.06640976	     -0.00259553	      0.00694540	     -0.18365979	     -0.00030022	     -0.00379196	      0.00104942	      0.00018760	      0.00021667	      0.00008667	      0.00043335	      0.00027734	      0.00083203	      0.00046802	      0.00000254	     -0.00028011	     -0.00033613	      0.00257258	      0.00902584	      0.00627885	     -0.00841540	      0.02031905	     -0.01927258	      0.00257258	      0.00902584	      0.00627885	      0.00056684	      0.01883654	     -0.00989791	      0.00403472	      0.00501916	      0.01617584	      0.00000000	      0.00824174	      0.00000000	     -0.00736893	     -0.03405403	     -0.00679817	      0.01003280	     -0.00025349	     -0.00149770	     -0.00091567	      0.01534830	     -0.00627885	      0.00252898	      0.02215038	     -0.01831331	     -0.00614804	      0.01329895	     -0.00562480	     -0.01281931	      0.02808040	     -0.03143784	     -0.02406892	      0.01486866	     -0.00754334	     -0.01595874	      0.03244071	     -0.03928640
      0.03333333	     -0.32784682	      0.13886044	     -0.13886044	      0.32784682	     -0.06638231	      0.53647849	      0.24114339	     -0.24114339	     -0.53647849	      0.06638231	     98.85671290	     77.62064776	     -1.72537513	    -18.18365735	     27.55892152	     35.24072453	      0.10930038	     -0.27472607	      0.13855773	     -0.13736304	     24.15626358	    -23.14138261	     -4.76230659	      0.45705240	     -0.34959060	      4.88138334	     14.22537653	    -28.85347543	     -5.01822540	      3.41841737	      7.04084714	     11.11102771	     -8.86251439	     -4.44951887	     -0.75154911	     21.47176882	    -24.67350336	    -10.86340286	     14.10978895	      5.00249821	      0.00081156	     -0.03075867	     -0.00480878	      0.01653961	     -0.01768652	     -0.00796221	      0.00494611	     -0.06658372	     -0.00288883	      0.00730458	     -0.18359085	     -0.00034411	     -0.00422888	      0.00119014	      0.00017445	      0.00021788	      0.00008715	      0.00043575	      0.00027888	      0.00083665	      0.00047062	      0.00000205	     -0.00027973	     -0.00033567	      0.00254423	      0.00892638	      0.00620966	     -0.00832267	      0.02009514	     -0.01906020	      0.00254423	      0.00892638	      0.00620966	      0.00056059	      0.01862897	     -0.00978883	      0.00400258	      0.00496385	      0.01609966	      0.00000000	      0.00805976	      0.00000000	     -0.00728772	     -0.03367877	     -0.00664717	      0.01270607	     -0.00037682	     -0.00269408	     -0.00090557	      0.01517916	     -0.00620966	      0.00250111	      0.02190629	     -0.01811150	     -0.00608029	      0.01315240	     -0.00556282	     -0.01267805	      0.02777097	     -0.03109141	     -0.02380369	      0.01470481	     -0.00746021	     -0.01578288	      0.03208323	     -0.03885348
      0.06666667	     -0.32626151	      0.13818898	     -0.13818898	      0.32626151	     -0.06606132	      0.53388435	      0.23997734	     -0.23997734	     -0.53388435	      0.06606132	     99.16129234	     77.24531288	     -1.73069104	    -20.07126356	     27.70839773	     37.15748446	      0.10651876	     -0.25671652	      0.13527419	     -0.12835826	     23.81137433	    -23.09351496	     -3.63289134	     -0.04334156	     -0.61580096	      5.36381975	     14.36951807	    -30.23052078	     -4.98949514	      3.52905869	      6.61577613	     11.04737392	     -8.93307618	     -4.41511348	     -1.96652374	     22.36933780	    -24.92181614	    -11.04374792	     13.04953331	      5.00067778	      0.00081651	     -0.03077581	     -0.00481154	      0.01655986	     -0.01772712	     -0.00776781	      0.00480448	     -0.06667530	     -0.00304323	      0.00749530	     -0.18355305	     -0.00036320	     -0.00445889	      0.00126586	      0.00016464	      0.00020747	      0.00008299	      0.00041493	      0.00026556	      0.00079667	      0.00044813	      0.00000281	     -0.00028030	     -0.00033635	      0.00253193	      0.00888322	      0.00617963	     -0.00828242	      0.01999797	     -0.01896803	      0.00253193	      0.00888322	      0.00617963	      0.00055788	      0.01853889	     -0.00974150	      0.00398855	      0.00493984	      0.01606605	      0.00000000	      0.00798143	      0.00000000	     -0.00725248	     -0.03351591	     -0.00658217	      0.01381735	     -0.00043413	     -0.00332295	     -0.00090120	      0.01510576	     -0.00617963	      0.00248902	      0.02180036	     -0.01802392	     -0.00605089	      0.01308880	     -0.00553592	     -0.01261675	      0.02763668	     -0.03094107	     -0.02368858	      0.01463371	     -0.00742414	     -0.01570656	      0.03192809	     -0.03866560
      0.10000000	     -0.32661151	      0.13833722	     -0.13833722	      0.32661151	     -0.06613219	      0.53445707	      0.24023478	     -0.24023478	     -0.53445707	      0.06613219	     99.10071559	     77.32817812	     -1.72963378	    -19.69433318	     27.74301048	     37.13122991	      0.11819644	     -0.23738807	      0.14897463	     -0.11869404	     23.42259200	    -23.08171861	     -1.98934184	     -2.06441924	     -0.53727223	      5.72430151	     15.36576788	    -31.97053467	     -4.40780329	      3.55546079	      6.21289636	     11.43036286	     -8.39690932	     -4.31581329	     -3.06304441	     24.62008073	    -24.48678113	    -11.22877377	     12.97515242	      5.00366172	      0.00081765	     -0.03077977	     -0.00481218	      0.01655963	     -0.01773652	     -0.00777051	      0.00480642	     -0.06667404	     -0.00304112	      0.00749268	     -0.18355357	     -0.00036296	     -0.00445574	      0.00126481	      0.00016479	      0.00019569	      0.00007828	      0.00039138	      0.00025048	      0.00075144	      0.00042269	      0.00000369	     -0.00028078	     -0.00033693	      0.00253465	      0.00889275	      0.00618626	     -0.00829131	      0.02001942	     -0.01898838	      0.00253465	      0.00889275	      0.00618626	      0.00055848	      0.01855878	     -0.00975195	      0.00399165	      0.00494514	      0.01607350	      0.00000000	      0.00799869	      0.00000000	     -0.00726026	     -0.03355187	     -0.00659649	      0.01359924	     -0.00042257	     -0.00319282	     -0.00090216	      0.01512197	     -0.00618626	      0.00249169	      0.02182375	     -0.01804326	     -0.00605738	      0.01310284	     -0.00554186	     -0.01263028	      0.02766633	     -0.03097426	     -0.02371399	      0.01464941	     -0.00743210	     -0.01572341	      0.03196234	     -0.03870708
